PathFileType	4	(X/Y/Z)	/Users/itak/Documents/Research/Walk-IL/dataset/trc/00392_00012.trc
DataRate	CameraRate	NumFrames	NumMarkers	Units	OrigDataRate	OrigDataStartFrame	OrigNumFrames
100.000000	100.000000	4	54	mm	100.000000	201	537
Frame#	Time	RPSI			LPSI			L3			STRN			T10			C7			CLAV			RBAK			LBAK			LSHO			LUPA			LAEL			LAOL			LWTS			LWPS			LFRA			LIFD			LHPS			LHTS			RSHO			RUPA			RAEL			RAOL			RWTS			RWPS			RFRA			RIFD			RHTS			RHPS			RBHD			LFHD			RFHD			LBHD			LHIP			RHIP			RASI			LASI			LKNE			LTHI			LANK			LTIP			LTOE			LMT1			LMT5			LHEE			RKNE			RANK			RTIP			RTOE			RMT1			RMT5			RHEE			RTHI			*53			
		X1	Y1	Z1	X2	Y2	Z2	X3	Y3	Z3	X4	Y4	Z4	X5	Y5	Z5	X6	Y6	Z6	X7	Y7	Z7	X8	Y8	Z8	X9	Y9	Z9	X10	Y10	Z10	X11	Y11	Z11	X12	Y12	Z12	X13	Y13	Z13	X14	Y14	Z14	X15	Y15	Z15	X16	Y16	Z16	X17	Y17	Z17	X18	Y18	Z18	X19	Y19	Z19	X20	Y20	Z20	X21	Y21	Z21	X22	Y22	Z22	X23	Y23	Z23	X24	Y24	Z24	X25	Y25	Z25	X26	Y26	Z26	X27	Y27	Z27	X28	Y28	Z28	X29	Y29	Z29	X30	Y30	Z30	X31	Y31	Z31	X32	Y32	Z32	X33	Y33	Z33	X34	Y34	Z34	X35	Y35	Z35	X36	Y36	Z36	X37	Y37	Z37	X38	Y38	Z38	X39	Y39	Z39	X40	Y40	Z40	X41	Y41	Z41	X42	Y42	Z42	X43	Y43	Z43	X44	Y44	Z44	X45	Y45	Z45	X46	Y46	Z46	X47	Y47	Z47	X48	Y48	Z48	X49	Y49	Z49	X50	Y50	Z50	X51	Y51	Z51	X52	Y52	Z52	X53	Y53	Z53	X54	Y54	Z54	

202	2.01	840.2472534179688	970.4232788085938	16.96188354492188	822.7477416992188	958.8319091796875	-114.9865112304688	838.4519653320312	1052.313110351562	-43.17345809936523	1089.576416015625	1210.212646484375	-54.35687637329102	838.9846801757812	1155.050537109375	-44.06985473632812	876.9042358398438	1404.776733398438	-51.08523178100586	1033.907958984375	1328.22216796875	-52.13719940185547	838.2332763671875	1258.359497070312	19.49503135681152	858.178955078125	1367.568725585938	-153.9719696044922	944.1217651367188	1381.632080078125	-208.8788604736328	917.375	1263.661010742188	-276.0318603515625	943.032470703125	1066.332153320312	-296.8132934570312	884.9155883789062	1044.465698242188	-236.5439910888672	1060.383056640625	869.7963256835938	-245.4302062988281	1012.251770019531	843.7037963867188	-307.6851196289062	971.5071411132812	963.9844360351562	-303.5511474609375	1096.87890625	696.0755615234375	-247.4229736328125	1042.46044921875	764.190185546875	-298.4302673339844	1096.517700195312	779.8006591796875	-265.8770141601562	943.5812377929688	1383.658935546875	105.4726333618164	937.0687866210938	1317.631958007812	165.9440460205078	958.9644165039062	1057.105102539062	205.1413726806641	923.588134765625	1044.608520507812	118.4188995361328	1086.97216796875	846.6075439453125	158.8646087646484	1054.29541015625	834.8468627929688	224.4438781738281	989.5439453125	993.1925048828125	217.1735687255859	1095.685180664062	675.13134765625	160.7577819824219	1112.758178710938	743.797119140625	177.0250701904297	1061.839599609375	745.5685424804688	223.7728881835938	885.937744140625	1584.331787109375	18.66658020019531	1041.262817382812	1610.18115234375	-103.1299514770508	1016.394653320312	1614.072875976562	17.17811584472656	901.226806640625	1574.554565429688	-141.1979522705078	903.6542358398438	958.5018310546875	-232.9794616699219	931.587646484375	950.6258544921875	125.5287780761719	1059.963989257812	965.109375	62.53231430053711	1023.704772949219	965.6298828125	-197.8307189941406	1075.286865234375	484.554931640625	-238.3885803222656	1032.250854492188	617.6405639648438	-241.2867889404297	878.6248779296875	67.42903137207031	-204.2379913330078	970.2877807617188	270.5894775390625	-235.5426330566406	1092.061279296875	62.96301651000977	-155.1489410400391	1017.646362304688	67.85983276367188	-117.9182891845703	1003.4833984375	47.42691802978516	-220.8785705566406	844.9334106445312	74.60546112060547	-144.9962158203125	1014.244873046875	465.0006408691406	83.0142822265625	1002.418029785156	47.16006469726562	27.45657539367676	1035.51220703125	342.0226135253906	60.23317718505859	1183.138305664062	26.16078758239746	-33.37091827392578	1105.633422851562	30.23540687561035	-65.6063232421875	1086.907104492188	37.91670227050781	31.51827239990234	928.3203125	32.94679260253906	-24.97183227539062	1027.18408203125	730.798583984375	113.7764739990234	nan	nan	nan	
203	2.02	835.9306030273438	970.2533569335938	16.65045928955078	818.3087768554688	958.8935546875	-115.3621978759766	834.53759765625	1052.30078125	-43.37773132324219	1085.215576171875	1210.429077148438	-54.3482666015625	834.8558349609375	1154.940551757812	-44.15445709228516	872.34521484375	1404.723266601562	-51.08319091796875	1029.384521484375	1328.337890625	-52.00026702880859	833.7998657226562	1258.243530273438	19.37849235534668	853.8279418945312	1367.675415039062	-154.006591796875	939.7814331054688	1381.85205078125	-208.8008575439453	913.1062622070312	1263.993896484375	-276.1094360351562	938.3490600585938	1066.658203125	-297.1196594238281	880.4356079101562	1044.8544921875	-236.6350555419922	1055.710571289062	869.9133911132812	-246.8524475097656	1006.55126953125	843.646484375	-308.2420959472656	966.4498901367188	964.1691284179688	-304.0263977050781	1090.873291015625	695.8499755859375	-248.1802825927734	1036.367309570312	764.0287475585938	-298.9189453125	1090.989379882812	779.335205078125	-267.0886535644531	938.8577270507812	1383.743530273438	105.4657135009766	932.2614135742188	1317.67236328125	165.9236145019531	954.4800415039062	1057.186645507812	204.9209136962891	919.8087768554688	1044.623779296875	117.8813705444336	1083.296142578125	846.9273681640625	160.2347869873047	1049.872924804688	835.2529296875	225.4021453857422	984.7543334960938	993.3815307617188	217.1768951416016	1091.761840820312	675.34716796875	162.231689453125	1108.652587890625	744.0263061523438	178.7128295898438	1057.107666015625	745.9326782226562	224.7490844726562	881.4924926757812	1584.234619140625	19.03040504455566	1035.920166015625	1610.287353515625	-103.7407150268555	1011.775695800781	1614.309692382812	16.69847869873047	895.763427734375	1574.2470703125	-140.9358978271484	899.1744384765625	958.7040405273438	-233.3427429199219	927.3504028320312	950.4752807617188	125.1849517822266	1055.529174804688	965.14111328125	62.17083740234375	1019.31787109375	965.72802734375	-198.1111907958984	1070.079833984375	484.3240356445312	-238.8934173583984	1028.023803710938	617.7127685546875	-241.4920654296875	862.4503173828125	72.97045135498047	-203.4041595458984	959.6082763671875	273.0158996582031	-235.3772430419922	1075.79248046875	62.02927780151367	-156.6740570068359	1002.177490234375	68.49135589599609	-118.6733551025391	986.3991088867188	49.81210327148438	-221.7615509033203	829.5792846679688	80.52469635009766	-143.8224945068359	1012.423522949219	465.1249084472656	82.59561157226562	1002.350708007812	47.15796279907227	27.53233909606934	1034.43505859375	342.3039855957031	59.96362686157227	1183.134033203125	26.17121124267578	-33.39012145996094	1105.71142578125	30.48318672180176	-65.64339447021484	1086.928100585938	37.91233062744141	31.51552963256836	928.4044799804688	32.85408782958984	-24.92316436767578	1023.941772460938	730.99658203125	113.142822265625	nan	nan	nan	
204	2.03	831.4405517578125	970.0052490234375	16.22557067871094	813.8234252929688	958.8565063476562	-115.8456344604492	830.6085205078125	1052.19189453125	-43.68809509277344	1080.716796875	1210.616333007812	-54.31638336181641	830.533447265625	1154.763549804688	-44.37084197998047	867.59765625	1404.594360351562	-51.19848251342773	1024.683349609375	1328.401123046875	-51.85357284545898	829.1370849609375	1258.044677734375	19.1176643371582	849.3818969726562	1367.708374023438	-154.1688842773438	935.3726806640625	1382.010620117188	-208.7865447998047	908.838134765625	1264.255737304688	-276.2737426757812	933.6731567382812	1066.912475585938	-297.4776000976562	875.9194946289062	1045.162841796875	-236.8034820556641	1051.1123046875	870.037109375	-248.3672943115234	1000.879455566406	843.5658569335938	-308.8070678710938	961.401611328125	964.282470703125	-304.5291442871094	1084.738403320312	695.60888671875	-248.8491363525391	1030.234741210938	763.8148803710938	-299.3516540527344	1085.429321289062	778.7506103515625	-268.2537841796875	933.797119140625	1383.765502929688	105.3906936645508	927.0731201171875	1317.640380859375	165.8306579589844	949.6112060546875	1057.185302734375	204.6369018554688	915.83544921875	1044.552368164062	117.2120208740234	1079.54736328125	847.31689453125	161.8171997070312	1045.187744140625	835.656005859375	226.4284973144531	979.6722412109375	993.499755859375	217.1942596435547	1087.801635742188	675.6124877929688	163.7269134521484	1104.439697265625	744.3031005859375	180.5649261474609	1052.0849609375	746.2697143554688	225.6703033447266	876.8060913085938	1584.0927734375	19.31032371520996	1030.429931640625	1610.294311523438	-104.3626937866211	1006.980224609375	1614.500244140625	16.20825576782227	890.1696166992188	1573.870483398438	-140.7355651855469	894.7027587890625	958.7999267578125	-233.7716217041016	922.8612060546875	950.2633056640625	124.7670745849609	1050.931518554688	965.1495361328125	61.82544708251953	1014.939697265625	965.7504272460938	-198.4430694580078	1064.39501953125	483.8384399414062	-239.4536590576172	1023.536682128906	617.629638671875	-241.7503051757812	845.160400390625	79.03061676025391	-202.3824157714844	948.1962890625	275.519775390625	-235.1338348388672	1058.095458984375	60.78744125366211	-157.989013671875	985.3872680664062	69.13771820068359	-119.2614898681641	967.99853515625	52.26973342895508	-222.4695739746094	813.12060546875	87.08856201171875	-142.4948272705078	1010.594848632812	465.242919921875	82.18592834472656	1002.279541015625	47.13322448730469	27.63064956665039	1033.359619140625	342.5830993652344	59.71599960327148	1183.1259765625	26.18161201477051	-33.41768646240234	1105.805541992188	30.80283355712891	-65.69551849365234	1086.9462890625	37.89573287963867	31.54153823852539	928.490478515625	32.73618316650391	-24.8554859161377	1020.492553710938	731.1911010742188	112.4991607666016	nan	nan	nan	
205	2.04	826.7645263671875	969.6749877929688	15.68747806549072	809.290771484375	958.7154541015625	-116.4373092651367	826.60888671875	1051.982177734375	-44.11159133911133	1076.0751953125	1210.747802734375	-54.25334930419922	826.0238647460938	1154.508422851562	-44.73606872558594	862.6732177734375	1404.384521484375	-51.43517684936523	1019.814636230469	1328.398559570312	-51.70265197753906	824.2344360351562	1257.761474609375	18.70710563659668	844.84423828125	1367.6533203125	-154.4553680419922	930.9011840820312	1382.091674804688	-208.8398742675781	904.5535278320312	1264.424194335938	-276.5148315429688	928.9736938476562	1067.0791015625	-297.8829650878906	871.3519287109375	1045.360107421875	-237.0206451416016	1046.601928710938	870.1712646484375	-249.9666442871094	995.2703247070312	843.4639282226562	-309.3848571777344	956.3513793945312	964.308837890625	-305.0570983886719	1078.557495117188	695.36181640625	-249.4301605224609	1024.127319335938	763.5592651367188	-299.7398071289062	1079.888671875	778.086669921875	-269.3890075683594	928.4067993164062	1383.708374023438	105.2458190917969	921.5047607421875	1317.519775390625	165.6601715087891	944.36572265625	1057.087890625	204.2947692871094	911.6484375	1044.380737304688	116.4311065673828	1075.706787109375	847.758056640625	163.6100921630859	1040.229370117188	836.0325927734375	227.5139465332031	974.3331298828125	993.5367431640625	217.2390441894531	1083.78564453125	675.9100341796875	165.2350463867188	1100.102905273438	744.608154296875	182.564697265625	1046.76953125	746.5557861328125	226.5230865478516	871.8817138671875	1583.892700195312	19.50543022155762	1024.793090820312	1610.197875976562	-104.9929275512695	1002.007568359375	1614.641967773438	15.71159553527832	884.4474487304688	1573.410400390625	-140.5990295410156	890.2330322265625	958.772705078125	-234.2706604003906	918.1148681640625	949.9800415039062	124.287223815918	1046.159790039062	965.1228637695312	61.49745178222656	1010.579528808594	965.6931762695312	-198.8473052978516	1058.188232421875	483.0913391113281	-240.0750885009766	1018.710571289062	617.3510131835938	-242.0784301757812	826.9498291015625	85.52254486083984	-201.2301635742188	936.1233520507812	278.0689697265625	-234.8438873291016	1039.079345703125	59.32006072998047	-159.0252838134766	967.403564453125	69.88504791259766	-119.6626663208008	948.474853515625	54.76129150390625	-222.9786224365234	795.7304077148438	94.24118804931641	-141.0796661376953	1008.743103027344	465.3502197265625	81.79052734375	1002.205993652344	47.08415985107422	27.75133323669434	1032.252075195312	342.8456115722656	59.48348617553711	1183.115478515625	26.18935775756836	-33.451416015625	1105.906494140625	31.16882514953613	-65.75980377197266	1086.9619140625	37.86811447143555	31.5971508026123	928.5620727539062	32.59845352172852	-24.76761817932129	1016.818481445312	731.327880859375	111.9067993164062	nan	nan	nan	
